Patient4_TMGait_0pt5_01_right_43_GRF.mot
version=1
nRows=51
nColumns=19
inDegrees=no
endheader
time	F1x	F1y	F1z	M1x	M1y	M1z	F2x	F2y	F2z	M2x	M2y	M2z	EC1x	EC1y	EC1z	EC2x	EC2y	EC2z
56.68	22.977	746.0892	61.347	-251.1029	-39.5017	599.879	1.1445	-5.1293	-0.2493	0.07748	-0.45927	-12.1011	-0.0592	0.0182	-0.0073	-0.0462	0.0165	0.9585
56.6929	23.557	746.7082	60.4676	-250.8881	-38.1799	596.6558	0.79417	-2.706	-0.094244	0.33206	-0.33616	-7.3342	-0.0592	0.0182	-0.0073	-0.0462	0.0165	0.9585
56.7059	24.4215	748.4897	59.4993	-251.0415	-36.6725	594.1231	0.44203	-0.62502	0.0058964	0.57332	-0.20195	-3.262	-0.0592	0.0182	-0.0073	-0.0462	0.0165	0.9585
56.7188	25.4613	751.4932	58.5301	-251.5977	-35.104	592.5499	0.11145	1.0006	0.060908	0.78351	-0.077331	-0.10588	-0.0592	0.0182	-0.0073	-0.0462	0.0165	0.9585
56.7317	26.5332	755.5404	57.6149	-252.4898	-33.5768	591.9586	-0.15971	2.1643	0.082148	0.95583	0.023772	2.1174	-0.0592	0.0182	-0.0073	-0.0462	0.0165	0.9585
56.7446	27.5238	760.2421	56.808	-253.5675	-32.1791	592.1579	-0.38047	2.9222	0.079137	1.0872	0.10571	3.5358	-0.0592	0.0182	-0.0073	-0.0462	0.0165	0.9585
56.7576	28.3917	765.0688	56.147	-254.6344	-30.9586	592.7929	-0.55821	3.3329	0.06177	1.1699	0.17411	4.2913	-0.0592	0.0182	-0.0073	-0.0462	0.0165	0.9585
56.7705	29.1604	769.4397	55.6734	-255.4805	-29.9441	593.4286	-0.70719	3.4477	0.036629	1.1924	0.24089	4.5253	-0.0592	0.0182	-0.0073	-0.0462	0.0165	0.9585
56.7834	29.9041	772.7847	55.4192	-255.9079	-29.1379	593.5982	-0.84973	3.2934	0.012889	1.1368	0.31179	4.3528	-0.0592	0.0182	-0.0073	-0.0462	0.0165	0.9585
56.7964	30.677	774.6434	55.4093	-255.7647	-28.5403	592.9207	-0.97973	2.8379	-0.0066515	0.9718	0.38092	3.8023	-0.0592	0.0182	-0.0073	-0.0462	0.0165	0.9585
56.8093	31.518	774.7185	55.6494	-254.9625	-28.1428	591.122	-1.1064	2.0361	-0.019326	0.66357	0.44022	2.891	-0.0592	0.0182	-0.0073	-0.0462	0.0165	0.9585
56.8222	32.4414	772.9332	56.122	-253.4909	-27.9276	588.0867	-1.1908	0.7973	-0.024738	0.16946	0.47375	1.544	-0.0592	0.0182	-0.0073	-0.0462	0.0165	0.9585
56.8351	33.4615	769.4451	56.7819	-251.4214	-27.8585	583.868	-1.2021	-0.93047	-0.020763	-0.53876	0.46303	-0.27162	-0.0592	0.0182	-0.0073	-0.0462	0.0165	0.9585
56.8481	34.6142	764.5633	57.5627	-248.8795	-27.8786	578.6308	-1.0636	-3.1507	-0.0073706	-1.4645	0.37896	-2.5603	-0.0592	0.0182	-0.0073	-0.0462	0.0165	0.9585
56.861	35.93	758.6535	58.3845	-246.0065	-27.9177	572.6074	-0.69814	-5.7355	0.010398	-2.5544	0.19579	-5.1881	-0.0592	0.0182	-0.0073	-0.0462	0.0165	0.9585
56.8739	37.4379	752.0561	59.1812	-242.9304	-27.9164	566.0141	-0.0092437	-8.3504	0.029441	-3.6644	-0.12365	-7.8297	-0.0592	0.0182	-0.0073	-0.0462	0.0165	0.9585
56.8869	39.1342	745.0441	59.9063	-239.7463	-27.8386	559.0449	1.1027	-10.3752	0.034594	-4.5233	-0.60269	-9.8918	-0.0592	0.0182	-0.0073	-0.0462	0.0165	0.9585
56.8998	41.021	737.8002	60.5363	-236.5122	-27.6672	551.8223	2.6946	-10.7978	-0.00038988	-4.6885	-1.2371	-10.387	-0.0592	0.0182	-0.0073	-0.0462	0.0165	0.9585
56.9127	43.0781	730.4232	61.0511	-233.2583	-27.3943	544.431	4.7813	-8.1699	-0.11469	-3.5242	-1.9891	-7.903	-0.0592	0.0182	-0.0073	-0.0462	0.0165	0.9585
56.9256	45.3	722.9206	61.4018	-229.9894	-26.9835	536.887	7.2278	-0.56576	-0.35146	-0.18934	-2.7556	-0.53849	-0.0592	0.0182	-0.0073	-0.0462	0.0165	0.9585
56.9386	47.6631	715.1538	61.5057	-226.6701	-26.3801	529.112	9.7191	14.2899	-0.76573	6.3098	-3.3372	13.948	-0.0592	0.0182	-0.0073	-0.0462	0.0165	0.9585
56.9515	50.1108	706.7227	61.2372	-223.1886	-25.5083	520.8594	11.6342	38.7493	-1.4012	16.9952	-3.4179	37.8977	-0.0592	0.0182	-0.0073	-0.0462	0.0165	0.9585
56.9644	52.5353	696.8266	60.4506	-219.3176	-24.2941	511.5993	12.0142	74.7091	-2.2923	32.6865	-2.5461	73.215	-0.0592	0.0182	-0.0073	-0.0462	0.0165	0.9585
56.9774	54.7366	684.2034	58.9759	-214.6908	-22.672	500.4938	9.6951	122.8723	-3.4525	53.6719	-0.20045	120.6467	-0.0592	0.0182	-0.0073	-0.0462	0.0165	0.9585
56.9903	56.469	667.1696	56.6661	-208.8115	-20.6138	486.3849	3.6614	181.7558	-4.8924	79.2763	4.0532	178.8015	-0.0592	0.0182	-0.0073	-0.0462	0.0165	0.9585
57.0032	57.4085	643.8816	53.4267	-201.128	-18.1548	468.0141	-5.9296	246.9704	-6.7098	107.5476	10.2153	243.3922	-0.0592	0.0182	-0.0073	-0.0462	0.0165	0.9585
57.0161	57.2351	612.6767	49.297	-191.1361	-15.4286	444.2186	-17.4883	311.729	-9.2502	135.5059	17.8994	307.6354	-0.0592	0.0182	-0.0073	-0.0462	0.0165	0.9585
57.0291	55.6631	572.546	44.4529	-178.5152	-12.6553	414.2952	-29.113	370.2223	-12.771	160.5974	26.5023	365.5548	-0.0592	0.0182	-0.0073	-0.0462	0.0165	0.9585
57.042	52.5309	523.4694	39.2038	-163.2279	-10.1023	378.2313	-39.5163	420.2411	-17.2041	181.8317	35.3677	414.7529	-0.0592	0.0182	-0.0073	-0.0462	0.0165	0.9585
57.0549	47.8538	466.4651	33.9104	-145.5426	-8.0091	336.7319	-47.9949	462.7004	-22.2818	199.5839	43.9138	456.014	-0.0592	0.0182	-0.0073	-0.0462	0.0165	0.9585
57.0679	41.7723	403.5017	28.8323	-126.0226	-6.5011	291.1754	-54.3181	500.0781	-27.7671	214.9109	51.8059	491.7375	-0.0592	0.0182	-0.0073	-0.0462	0.0165	0.9585
57.0808	34.5188	337.3511	24.1212	-105.4877	-5.6066	243.5076	-58.5778	535.0002	-33.4381	228.9436	58.8748	524.4828	-0.0592	0.0182	-0.0073	-0.0462	0.0165	0.9585
57.0937	26.4434	271.3387	19.861	-84.945	-5.2735	196.0803	-61.053	569.4362	-39.2016	242.5293	65.1678	556.1901	-0.0592	0.0182	-0.0073	-0.0462	0.0165	0.9585
57.1066	18.1039	208.928	16.1071	-65.465	-5.3679	151.3178	-62.1289	604.3557	-44.9971	256.0864	70.8148	587.8815	-0.0592	0.0182	-0.0073	-0.0462	0.0165	0.9585
57.1196	10.2234	153.1713	12.8529	-48.0119	-5.6561	111.3466	-62.2611	639.5565	-50.8098	269.5424	76.0129	619.4921	-0.0592	0.0182	-0.0073	-0.0462	0.0165	0.9585
57.1325	3.5474	106.0896	10.0467	-33.2447	-5.8638	77.5498	-61.9252	673.8457	-56.5434	282.4214	80.8834	650.0091	-0.0592	0.0182	-0.0073	-0.0462	0.0165	0.9585
57.1454	-1.4064	68.4213	7.6247	-21.4191	-5.7763	50.4267	-61.4671	705.5694	-62.0093	294.0768	85.4062	677.9526	-0.0592	0.0182	-0.0073	-0.0462	0.0165	0.9585
57.1584	-4.4633	39.8812	5.5195	-12.4626	-5.2891	29.7942	-61.0088	733.1514	-66.8727	303.9256	89.335	701.854	-0.0592	0.0182	-0.0073	-0.0462	0.0165	0.9585
57.1713	-5.7307	19.5527	3.6924	-6.0946	-4.4143	15.0281	-60.4709	755.3639	-70.7612	311.5486	92.3044	720.5258	-0.0592	0.0182	-0.0073	-0.0462	0.0165	0.9585
57.1842	-5.6167	6.2091	2.1635	-1.9279	-3.3015	5.2802	-59.6749	771.3438	-73.397	316.6805	93.9972	733.1107	-0.0592	0.0182	-0.0073	-0.0462	0.0165	0.9585
57.1971	-4.7402	-1.5422	0.99878	0.48217	-2.1984	-0.42692	-58.4729	780.6255	-74.6765	319.2135	94.2638	739.1454	-0.0592	0.0182	-0.0073	-0.0462	0.0165	0.9585
57.2101	-3.5794	-5.2055	0.20375	1.6115	-1.2644	-3.1526	-56.7782	783.3217	-74.6382	319.2663	93.1157	738.7326	-0.0592	0.0182	-0.0073	-0.0462	0.0165	0.9585
57.223	-2.4312	-6.166	-0.28709	1.8962	-0.54486	-3.8937	-54.5742	780.2715	-73.4123	317.2368	90.6836	732.6679	-0.0592	0.0182	-0.0073	-0.0462	0.0165	0.9585
57.2359	-1.4481	-5.5401	-0.53718	1.6848	-0.048523	-3.4659	-51.8936	772.9228	-71.2075	313.7535	87.1911	722.3042	-0.0592	0.0182	-0.0073	-0.0462	0.0165	0.9585
57.2489	-0.68859	-4.1431	-0.62312	1.2325	0.25568	-2.462	-48.7989	763.1123	-68.2682	309.583	82.9042	709.3408	-0.0592	0.0182	-0.0073	-0.0462	0.0165	0.9585
57.2618	-0.1488	-2.5281	-0.59966	0.71115	0.40116	-1.2923	-45.3574	752.8257	-64.8678	305.5306	78.1105	695.5953	-0.0592	0.0182	-0.0073	-0.0462	0.0165	0.9585
57.2747	0.19525	-1.0133	-0.52076	0.22077	0.43724	-0.20083	-41.6222	743.8682	-61.2758	302.3144	73.0801	682.6953	-0.0592	0.0182	-0.0073	-0.0462	0.0165	0.9585
57.2876	0.38311	0.25162	-0.41686	-0.18928	0.40142	0.69664	-37.6209	737.6233	-57.747	300.4681	68.0486	671.8723	-0.0592	0.0182	-0.0073	-0.0462	0.0165	0.9585
57.3006	0.4558	1.2222	-0.31637	-0.5034	0.33115	1.3713	-33.3452	734.906	-54.4813	300.2872	63.1812	663.8312	-0.0592	0.0182	-0.0073	-0.0462	0.0165	0.9585
57.3135	0.44402	1.9112	-0.22266	-0.72578	0.24018	1.8365	-28.7879	735.9497	-51.6201	301.8248	58.5814	658.7616	-0.0592	0.0182	-0.0073	-0.0462	0.0165	0.9585
57.3264	0.37202	2.3548	-0.14331	-0.86791	0.14448	2.1195	-23.9495	740.464	-49.25	304.916	54.2997	656.3976	-0.0592	0.0182	-0.0073	-0.0462	0.0165	0.9585
